<svg xmlns="http://www.w3.org/2000/svg" viewBox="0 0 526.84 550.54"><defs><style>.cls-1{fill:#ee223b;}</style></defs><g id="Layer_2" data-name="Layer 2"><g id="图层_1" data-name="图层 1"><path class="cls-1" d="M22.07.84s2.67,0,22.74,8.42S125.11,43,132.83,46s9.26,2.37,12.77,2.53c9.54.42,43.37-24,123.38-24,52.5,0,90.68,17.13,100.79,20.5s14.46,4.35,28.21-.84S504.67,0,504.67,0c-1.27,20.47-3.07,36.9-4.49,48.23-1.69,13.37-3.07,21.34-4.84,38.92-.4,4-1,11.88-2.33,27.53-2.14,26.19-2.14,28-1.7,31.18.82,6,4.2,14.25,11,30.73,4.67,11.36,7.2,16.16,11.79,28.49,4.91,13.2,19.09,44.5,9.54,121.7L419.74,308.25s19.79-191.18-155.67-191.18S107.42,308.25,107.42,308.25L3.83,326.78s-9.48-40.38,1.4-96.57c4.06-21,16.38-44.06,25.27-68.22,4.65-12.66,5.44-16.82,4.77-24.71C33.78,119.83,22.07.84,22.07.84Z"/><path class="cls-1" d="M417.18,327.11l103.87,18.81q-7.08,22.21-14.17,44.43l-95.55-43.18Z"/><path class="cls-1" d="M405.56,366.68l92.84,42L467.2,455,395.43,384.7Q400.5,375.69,405.56,366.68Z"/><path class="cls-1" d="M382.51,402.91l68.92,68.22a133.41,133.41,0,0,1-10.7,11.13c-.63.58-2.73,2.48-6.46,5.6s-8.82,7.19-15.19,11.68c-9.55,6.73-24.72,17.41-46.24,27.31a263.74,263.74,0,0,1-77.34,21.69,268.22,268.22,0,0,1-61.79.41,252.53,252.53,0,0,1-100.17-32.57,267.58,267.58,0,0,1-58.13-44.9c31.73-31.44,68.93-68.21,68.93-68.21,6.58,7.26,49.28,52.83,119.13,52.74S376,410.19,382.51,402.91Z"/><polygon class="cls-1" points="5.79 346.27 109.66 327.46 115.56 347.68 19.83 390.63 5.79 346.27"/><path class="cls-1" d="M121.1,367.58l10.31,17.48h0s-11.33,10.66-14.44,13.6C106.15,408.88,96,419,76.35,438.93c-9.5,9.66-16.57,16.77-16.57,16.77L28.44,409Z"/></g></g></svg>